<svg height="512pt" viewBox="-63 0 512 512" width="512pt" xmlns="http://www.w3.org/2000/svg"><g fill-rule="evenodd"><path d="m326.429688 7.558594c-99.246094 0-198.488282 0-297.734376 0-11.632812 0-21.136718 9.464844-21.136718 21.027344v371.710937c0 11.5625 9.503906 21.03125 21.136718 21.03125h21.648438l297.222656-343.570313v-49.171874c0-11.5625-9.53125-21.027344-21.136718-21.027344zm0 0" fill="#c4cccf"/><path d="m300.386719 45.277344h-229.703125c-11.207032 0-20.339844 9.125-20.339844 20.320312v359.074219c0 11.164063 9.164062 20.289063 20.339844 20.289063h286.445312c11.179688 0 20.34375-9.125 20.34375-20.289063v-287.371094c0-2.550781 0-4.875-.03125-7.027343zm0 0" fill="#eceff1"/><path d="m300.386719 45.277344-.058594 64.671875c0 11.167969 9.164063 20.320312 20.34375 20.320312h56.773437c-.285156-16.945312-2.214843-22.472656-16.144531-37.578125l-13.734375-14.933594-12.679687-13.71875c-13.421875-14.59375-14.640625-18.761718-34.5-18.761718zm0 0" fill="#90a4ae"/><path d="m347.597656 424.671875c0 11.136719-9.109375 20.261719-20.257812 20.292969h29.789062c11.179688 0 20.34375-9.128906 20.34375-20.292969v-287.371094c0-2.550781 0-4.875-.03125-7.027343h-29.875c1.476563 97.914062.03125 196.367187.03125 294.398437zm0 0" fill="#c4cccf"/><path d="m183.238281 296.375c-5.875 0-10.726562 4.449219-10.726562 9.917969v73.515625h-14.441407c-34.414062 1.699218-35.179687 28.847656-20.964843 47.101562l14.070312 18.054688 35.039063 45.003906c15.886718 19.296875 41.539062 19.296875 55.382812 0l35.039063-45.003906 14.074219-18.054688c14.210937-18.25 13.445312-45.402344-20.96875-47.101562h-14.46875v-73.515625c0-5.46875-4.824219-9.917969-10.726563-9.917969zm0 0" fill="#8bc34a"/><path d="m266.535156 410.925781-14.070312 18.054688-12.457032 15.984375-22.582031 28.988281c-8.285156 11.535156-20.742187 16.183594-32.828125 13.945313l1.617188 2.070312c15.890625 19.296875 41.539062 19.296875 55.382812 0l35.039063-45.003906 14.074219-18.054688c13.617187-17.457031 13.503906-43.105468-16.738282-46.761718 3.261719 9.464843-.085937 21.3125-7.4375 30.777343zm0 0" fill="#689f38"/></g><path d="m295.960938 217.144531h-185.015626c-4.175781 0-7.558593 3.382813-7.558593 7.554688 0 4.175781 3.382812 7.558593 7.558593 7.558593h185.015626c4.171874 0 7.554687-3.382812 7.554687-7.558593 0-4.171875-3.382813-7.554688-7.554687-7.554688zm0 0"/><path d="m295.960938 170.410156h-185.015626c-4.175781 0-7.558593 3.382813-7.558593 7.558594 0 4.171875 3.382812 7.554688 7.558593 7.554688h185.015626c4.171874 0 7.554687-3.382813 7.554687-7.554688 0-4.175781-3.382813-7.558594-7.554687-7.558594zm0 0"/><path d="m377.472656 270.976562c4.167969 0 7.558594-3.390624 7.558594-7.558593v-126.121094c0-2.433594-.011719-4.679687-.042969-6.792969.003907-.078125.011719-.15625.011719-.234375 0-.160156-.011719-.316406-.023438-.472656-.328124-18.042969-2.652343-25.464844-18.121093-42.230469l-11.730469-12.722656v-46.257812c0-15.761719-12.871094-28.585938-28.695312-28.585938h-297.734376c-15.824218 0-28.695312 12.824219-28.695312 28.585938v185.855468c0 4.175782 3.382812 7.558594 7.558594 7.558594 4.171875 0 7.554687-3.382812 7.554687-7.558594v-185.855468c0-7.429688 6.09375-13.472657 13.582031-13.472657h297.734376c7.488281 0 13.578124 6.042969 13.578124 13.472657v29.855468c-1.308593-1.425781-2.515624-2.765625-3.609374-3.996094-11.15625-12.425781-16.035157-16.726562-36.007813-16.726562h-229.707031c-15.386719 0-27.894532 12.507812-27.894532 27.875v348.175781h-14.09375c-7.488281 0-13.582031-6.042969-13.582031-13.472656v-151.25c0-4.175781-3.382812-7.558594-7.554687-7.558594-4.175782 0-7.558594 3.382813-7.558594 7.558594v151.25c0 15.761719 12.871094 28.585937 28.695312 28.585937h14.414063c2.039063 13.367188 13.621094 23.640626 27.574219 23.640626h76.792968l32.78125 42.089843c.039063.050781.082032.101563.121094.160157 9.054688 10.996093 21.484375 17.226562 34.28125 17.226562.4375 0 .878906-.011719 1.320313-.03125 12.40625-.410156 23.941406-6.785156 31.671875-17.503906l32.671875-41.941406h76.800781c15.386719 0 27.90625-12.496094 27.90625-27.851563v-123.652344c0-4.167969-3.390625-7.558593-7.558594-7.558593-4.167968 0-7.558594 3.390624-7.558594 7.558593v123.652344c0 7.015625-5.738281 12.734375-12.785156 12.734375h-65.027344l4.570313-5.859375c10.148437-13.015625 13.054687-28.511719 7.585937-40.417969-3.007812-6.570312-11.445312-17.746094-34.140624-18.867187-.121094-.011719-.25-.011719-.371094-.011719h-6.917969v-65.953125c0-9.640625-8.195313-17.488281-18.273437-17.488281h-61.316407c-10.078125 0-18.289062 7.847656-18.289062 17.488281v65.953125h-6.875c-.132813 0-.25 0-.371094.011719-22.707031 1.121093-31.144531 12.296875-34.152344 18.867187-5.457031 11.90625-2.546875 27.402344 7.589844 40.417969l4.558594 5.859375h-65.015625c-7.046875 0-12.789063-5.71875-12.789063-12.734375v-3.265625c0-.027344.003907-.054688.003907-.082031 0-.023438-.003907-.050781-.003907-.078125v-355.652344c0-7.027344 5.742188-12.757812 12.789063-12.757812h222.136718l-.050781 57.113281c0 15.371093 12.515625 27.878906 27.902344 27.878906h49.242187v125.589844c0 4.167969 3.390626 7.558593 7.558594 7.558593zm-234.40625 151.292969c-6.457031-8.296875-8.777344-18.285156-5.769531-24.84375 3.46875-7.578125 13.277344-9.65625 20.964844-10.058593h14.246093c4.179688 0 7.558594-3.386719 7.558594-7.554688v-73.515625c0-1.117187 1.359375-2.367187 3.167969-2.367187h61.316406c1.859375 0 3.160157 1.25 3.160157 2.367187v73.515625c0 4.167969 3.390624 7.554688 7.558593 7.554688h14.277344c7.695313.402343 17.503906 2.480468 20.972656 10.058593 3.011719 6.558594.691407 16.546875-5.765625 24.835938l-11.808594 15.144531-11.777343 15.117188-25.535157 32.773437c-.058593.078125-.117187.15625-.179687.238281-5.046875 7.046875-12.136719 11.066406-19.972656 11.328125-8.5.296875-17.015625-3.949219-23.367188-11.628906l-25.484375-32.710937-11.777344-15.117188zm164.820313-312.3125.050781-56.863281c7.578125.726562 9.890625 3.289062 17.214844 11.449219 1.261718 1.410156 2.640625 2.941406 4.179687 4.621093l26.414063 28.652344c10.085937 10.929688 12.988281 15.476563 13.824218 24.898438h-48.898437c-7.050781 0-12.785156-5.726563-12.785156-12.757813zm0 0"/><path d="m110.945312 138.765625h117.714844c4.175782 0 7.558594-3.382813 7.558594-7.558594s-3.382812-7.558593-7.558594-7.558593h-117.714844c-4.175781 0-7.558593 3.382812-7.558593 7.558593 0 4.171875 3.382812 7.558594 7.558593 7.558594zm0 0"/></svg>