<?xml version="1.0" encoding="iso-8859-1"?>
<!-- Generator: Adobe Illustrator 19.0.0, SVG Export Plug-In . SVG Version: 6.00 Build 0)  -->
<svg version="1.1" id="Capa_1" xmlns="http://www.w3.org/2000/svg" xmlns:xlink="http://www.w3.org/1999/xlink" x="0px" y="0px"
	 viewBox="0 0 513.024 513.024" style="enable-background:new 0 0 513.024 513.024;" xml:space="preserve">
<path style="fill:#89664C;" d="M455.937,25.264c0,82.688,0,55.152,0,127.28c-59.168,0-32.24-0.032-127.408,0.128l41.488-41.488
	C299.905,55.824,193.825,58.16,126.001,126c-58.176,58.176-69.248,146.096-33.216,215.472L38.209,341.6l0.128,49.76
	c-61.104-98.992-49.232-230.688,36.544-316.464c95.104-95.104,246.224-99.088,346.48-15.072L455.937,25.264z"/>
<path style="fill:#8CC63E;" d="M474.737,121.712c61.104,98.992,49.104,230.544-36.688,316.336
	C343.745,532.352,193.409,538,91.697,453.264l-34.56,34.56c-0.16-83.408-0.128-56.304-0.128-127.408
	c59.28-0.176,32.464-0.16,127.552,0l-41.488,41.488c70.512,55.648,176.336,52.608,243.888-14.944
	c58.176-58.176,69.376-145.952,33.36-215.344l54.56-0.128L474.737,121.712z"/>
<g>
</g>
<g>
</g>
<g>
</g>
<g>
</g>
<g>
</g>
<g>
</g>
<g>
</g>
<g>
</g>
<g>
</g>
<g>
</g>
<g>
</g>
<g>
</g>
<g>
</g>
<g>
</g>
<g>
</g>
</svg>
